# xmcd
#
# Track frame offsets:
#	150
#	12887
#	24135
#	34185
#	46110
#	58630
#	69297
#	81982
#	93285
#	106177
#	115882
#	128185
#	138362
#	149330
#	160742
#	173480
#	193067
#
# Disc length: 2948 seconds
#
# Revision: 4
# Processed by: cddbd v1.5.2PL0 Copyright (c) Steve Scherf et al.
# Submitted via: EasyCDDAExtractor 11.9.9.666
#
DISCID=d40b8211
DTITLE=Ray Conniff - Christmas Caroling
DYEAR=1995
DGENRE=Country
TTITLE0=White Christmas
TTITLE1=Santa Claus Is Comin' To Town
TTITLE2=Rudolph, The Red-Nosed Reindeer
TTITLE3=Winter Wonderland
TTITLE4=Jingle Bells
TTITLE5=Frosty The Snowman
TTITLE6=Silent Night, Holy Night
TTITLE7=Silver Bells
TTITLE8=O Little Town of Bethlehem
TTITLE9=O Tannenbaum
TTITLE10=God Rest Ye Merry, Gentlemen
TTITLE11=Joy To The World
TTITLE12=Here Comes Santa Claus
TTITLE13=Sleigh Ride
TTITLE14=The Christmas Song (Merry Christmas To You)
TTITLE15=The Twelve Days of Christmas
TTITLE16=Medley: The First Noel, Hark! The Herald Angels Sing, O Come, All Ye 
TTITLE16=Faithful, We Wish You A Merry Christmas
EXTD=YEAR: 1995
EXTT0=
EXTT1=
EXTT2=
EXTT3=
EXTT4=
EXTT5=
EXTT6=
EXTT7=
EXTT8=
EXTT9=
EXTT10=
EXTT11=
EXTT12=
EXTT13=
EXTT14=
EXTT15=
EXTT16=
PLAYORDER=
